<svg xmlns="http://www.w3.org/2000/svg" width="1600" height="900" viewBox="0 0 1600 900">
  <defs>
    <linearGradient id="bg" x1="0" y1="0" x2="0" y2="1">
      <stop offset="0" stop-color="#0b1020"/>
      <stop offset="1" stop-color="#101a2e"/>
    </linearGradient>
    <radialGradient id="glow" cx="0.5" cy="0.46" r="0.55">
      <stop offset="0" stop-color="#18b26b" stop-opacity="0.30"/>
      <stop offset="0.55" stop-color="#18b26b" stop-opacity="0.10"/>
      <stop offset="1" stop-color="#18b26b" stop-opacity="0"/>
    </radialGradient>
    <linearGradient id="core" x1="0" y1="0" x2="1" y2="1">
      <stop offset="0" stop-color="#35d492"/>
      <stop offset="0.55" stop-color="#18b26b"/>
      <stop offset="1" stop-color="#0e8f56"/>
    </linearGradient>
    <linearGradient id="panel" x1="0" y1="0" x2="0" y2="1">
      <stop offset="0" stop-color="#1c2740" stop-opacity="0.92"/>
      <stop offset="1" stop-color="#141d31" stop-opacity="0.92"/>
    </linearGradient>
    <linearGradient id="beam" x1="0" y1="0" x2="1" y2="0">
      <stop offset="0" stop-color="#35d492" stop-opacity="0.55"/>
      <stop offset="1" stop-color="#6c8cff" stop-opacity="0.16"/>
    </linearGradient>
  </defs>

  <rect width="1600" height="900" fill="url(#bg)"/>

  <!-- 地面网格 -->
  <g stroke="#22304f" stroke-width="1" opacity="0.35">
    <path d="M0 660h1600M0 720h1600M0 790h1600M0 870h1600"/>
    <path d="M800 620L-120 900M800 620L160 900M800 620L440 900M800 620L680 900M800 620L920 900M800 620L1160 900M800 620L1440 900M800 620L1720 900"/>
  </g>

  <rect width="1600" height="900" fill="url(#glow)"/>

  <!-- 三层装配底座 -->
  <g opacity="0.85">
    <ellipse cx="800" cy="600" rx="330" ry="52" fill="none" stroke="#2c3d63" stroke-width="2"/>
    <ellipse cx="800" cy="622" rx="270" ry="42" fill="none" stroke="#234a3c" stroke-width="2"/>
    <ellipse cx="800" cy="642" rx="205" ry="32" fill="none" stroke="#18b26b" stroke-opacity="0.5" stroke-width="2"/>
  </g>

  <!-- 七条光束 -->
  <g stroke="url(#beam)" stroke-width="2" opacity="0.8">
    <path d="M800 400L180 300" fill="none"/>
    <path d="M800 400L390 210" fill="none"/>
    <path d="M800 400L620 160" fill="none"/>
    <path d="M800 400L980 160" fill="none"/>
    <path d="M800 400L1210 210" fill="none"/>
    <path d="M800 400L1420 300" fill="none"/>
    <path d="M800 400L1450 480" fill="none"/>
  </g>

  <!-- 七块悬浮面板（抽象界面线框，无文字） -->
  <g>
    <g transform="translate(96,238)">
      <rect width="168" height="112" rx="12" fill="url(#panel)" stroke="#2c3d63" stroke-width="1.5"/>
      <rect x="16" y="18" width="64" height="8" rx="4" fill="#35d492" opacity="0.85"/>
      <rect x="16" y="38" width="136" height="6" rx="3" fill="#3d4f78"/>
      <rect x="16" y="52" width="112" height="6" rx="3" fill="#3d4f78"/>
      <rect x="16" y="72" width="58" height="24" rx="6" fill="#1c2740" stroke="#2c3d63"/>
      <rect x="84" y="72" width="58" height="24" rx="6" fill="#1c2740" stroke="#2c3d63"/>
    </g>
    <g transform="translate(312,146)">
      <rect width="168" height="112" rx="12" fill="url(#panel)" stroke="#2c3d63" stroke-width="1.5"/>
      <circle cx="30" cy="34" r="12" fill="none" stroke="#6c8cff" stroke-width="2.5"/>
      <rect x="52" y="26" width="96" height="6" rx="3" fill="#3d4f78"/>
      <rect x="52" y="40" width="72" height="6" rx="3" fill="#3d4f78"/>
      <path d="M20 88l24-22 18 12 26-30 22 16 18-10" fill="none" stroke="#35d492" stroke-width="2.5" stroke-linecap="round"/>
    </g>
    <g transform="translate(540,96)">
      <rect width="168" height="112" rx="12" fill="url(#panel)" stroke="#2c3d63" stroke-width="1.5"/>
      <rect x="16" y="18" width="136" height="10" rx="5" fill="#22304f"/>
      <rect x="16" y="18" width="92" height="10" rx="5" fill="#18b26b" opacity="0.85"/>
      <rect x="16" y="44" width="64" height="52" rx="8" fill="#1c2740" stroke="#2c3d63"/>
      <rect x="90" y="44" width="62" height="22" rx="6" fill="#1c2740" stroke="#2c3d63"/>
      <rect x="90" y="74" width="62" height="22" rx="6" fill="#1c2740" stroke="#2c3d63"/>
    </g>
    <g transform="translate(900,96)">
      <rect width="168" height="112" rx="12" fill="url(#panel)" stroke="#2c3d63" stroke-width="1.5"/>
      <g stroke="#3d4f78" stroke-width="1.5">
        <path d="M16 40h136M16 60h136M16 80h136M56 24v72M108 24v72"/>
      </g>
      <rect x="16" y="24" width="40" height="16" fill="#18b26b" opacity="0.32"/>
      <rect x="108" y="60" width="40" height="16" fill="#6c8cff" opacity="0.3"/>
    </g>
    <g transform="translate(1128,146)">
      <rect width="168" height="112" rx="12" fill="url(#panel)" stroke="#2c3d63" stroke-width="1.5"/>
      <rect x="16" y="18" width="84" height="8" rx="4" fill="#6c8cff" opacity="0.8"/>
      <circle cx="28" cy="56" r="8" fill="#18b26b" opacity="0.9"/>
      <rect x="44" y="52" width="100" height="7" rx="3.5" fill="#3d4f78"/>
      <circle cx="28" cy="82" r="8" fill="#2c3d63"/>
      <rect x="44" y="78" width="76" height="7" rx="3.5" fill="#3d4f78"/>
    </g>
    <g transform="translate(1338,238)">
      <rect width="168" height="112" rx="12" fill="url(#panel)" stroke="#2c3d63" stroke-width="1.5"/>
      <rect x="16" y="18" width="52" height="76" rx="8" fill="#1c2740" stroke="#2c3d63"/>
      <rect x="78" y="18" width="74" height="34" rx="8" fill="#1c2740" stroke="#2c3d63"/>
      <rect x="78" y="60" width="74" height="34" rx="8" fill="#18b26b" opacity="0.22" stroke="#18b26b" stroke-opacity="0.5"/>
    </g>
    <g transform="translate(1352,420)">
      <rect width="168" height="112" rx="12" fill="url(#panel)" stroke="#2c3d63" stroke-width="1.5"/>
      <path d="M22 82a26 26 0 1 1 34-32" fill="none" stroke="#35d492" stroke-width="3" stroke-linecap="round"/>
      <circle cx="44" cy="60" r="10" fill="#18b26b" opacity="0.7"/>
      <rect x="92" y="34" width="60" height="7" rx="3.5" fill="#3d4f78"/>
      <rect x="92" y="52" width="44" height="7" rx="3.5" fill="#3d4f78"/>
      <rect x="92" y="70" width="52" height="7" rx="3.5" fill="#3d4f78"/>
    </g>
  </g>

  <!-- 中央晶体核心 -->
  <g>
    <path d="M800 300l86 62-32 104h-108l-32-104z" fill="url(#core)" opacity="0.95"/>
    <path d="M800 300l86 62-32 104h-108l-32-104z" fill="none" stroke="#8ef0c0" stroke-width="2" opacity="0.8"/>
    <path d="M746 466l-32-104 86-62M854 466l32-104-86-62M714 362h172M800 300v166" stroke="#eafff4" stroke-width="1.4" opacity="0.5" fill="none"/>
    <ellipse cx="800" cy="512" rx="120" ry="16" fill="#18b26b" opacity="0.18"/>
  </g>

  <!-- 星点 -->
  <g fill="#6c8cff">
    <circle cx="220" cy="120" r="2" opacity="0.6"/>
    <circle cx="470" cy="70" r="1.6" opacity="0.5"/>
    <circle cx="760" cy="50" r="2.2" opacity="0.6"/>
    <circle cx="1060" cy="70" r="1.6" opacity="0.5"/>
    <circle cx="1330" cy="110" r="2" opacity="0.6"/>
    <circle cx="1520" cy="180" r="1.6" opacity="0.45"/>
    <circle cx="90" cy="420" r="1.8" opacity="0.4"/>
  </g>
</svg>
